<?xml version="1.0" encoding="UTF-8" standalone="no"?>
<svg
   xmlns:dc="http://purl.org/dc/elements/1.1/"
   xmlns:cc="http://creativecommons.org/ns#"
   xmlns:rdf="http://www.w3.org/1999/02/22-rdf-syntax-ns#"
   xmlns:svg="http://www.w3.org/2000/svg"
   xmlns="http://www.w3.org/2000/svg"
   version="1.1"
   id="svg4793"
   viewBox="0 0 2019.9727 852.85724"
   height="240.69527mm"
   width="570.08118mm">
  <defs
     id="defs4795" />
  <metadata
     id="metadata4798">
    <rdf:RDF>
      <cc:Work
         rdf:about="">
        <dc:format>image/svg+xml</dc:format>
        <dc:type
           rdf:resource="http://purl.org/dc/dcmitype/StillImage" />
        <dc:title></dc:title>
      </cc:Work>
    </rdf:RDF>
  </metadata>
  <g
     transform="translate(764.27203,-105.93356)"
     id="layer1">
    <g
       transform="translate(7476.745,-1409.2858)"
       id="g4860">
      <rect
         ry="21.111694"
         y="1515.2194"
         x="-6628.5713"
         height="360"
         width="234.28572"
         id="rect4862"
         style="color:#000000;clip-rule:nonzero;display:inline;overflow:visible;visibility:visible;opacity:1;isolation:auto;mix-blend-mode:normal;color-interpolation:sRGB;color-interpolation-filters:linearRGB;solid-color:#000000;solid-opacity:1;fill:#dc74a6;fill-opacity:1;fill-rule:nonzero;stroke:none;stroke-width:5;stroke-linecap:butt;stroke-linejoin:round;stroke-miterlimit:4;stroke-dasharray:none;stroke-dashoffset:0;stroke-opacity:1;color-rendering:auto;image-rendering:auto;shape-rendering:auto;text-rendering:auto;enable-background:accumulate" />
      <path
         d="m -6416.6719,1529.5039 c -0.583,-0.018 -1.1408,0.021 -1.6621,0.1094 a 12.574924,12.574924 0 0 1 -2.1094,0.1797 c -62.6163,0.018 -125.2203,-0.036 -187.8105,0.027 -3.568,0.066 -6.6649,5.2135 -5.9316,9.3848 a 12.574924,12.574924 0 0 1 0.1894,2.1699 c 0.065,104.6584 -0.128,209.2974 0.098,313.8965 0.2986,3.3472 5.2529,6.2514 9.3906,5.5508 a 12.574924,12.574924 0 0 1 2.0703,-0.1778 c 63.0091,-0.1469 125.9449,0.2833 188.7344,-0.2168 1.6328,-0.2545 2.5677,-0.9184 3.664,-2.7617 1.1601,-1.9504 1.7623,-5.1073 1.3555,-7.5137 a 12.574924,12.574924 0 0 1 -0.1758,-2.0878 c -0.066,-104.336 0.1306,-208.6526 -0.1,-312.9278 -0.2725,-2.9424 -3.6815,-5.5093 -7.7129,-5.6328 z"
         id="path4864"
         style="color:#000000;clip-rule:nonzero;display:inline;overflow:visible;visibility:visible;opacity:1;isolation:auto;mix-blend-mode:normal;color-interpolation:sRGB;color-interpolation-filters:linearRGB;solid-color:#000000;solid-opacity:1;fill:#ffffff;fill-opacity:1;fill-rule:nonzero;stroke:none;stroke-width:5;stroke-linecap:butt;stroke-linejoin:round;stroke-miterlimit:4;stroke-dasharray:none;stroke-dashoffset:0;stroke-opacity:1;color-rendering:auto;image-rendering:auto;shape-rendering:auto;text-rendering:auto;enable-background:accumulate" />
      <g
         id="g4866"
         transform="matrix(0.5118292,0.00208873,-0.00209134,0.51246642,-6511.2005,1642.7273)">
        <g
           id="g4868"
           style="fill:#a4c639">
          <g
             style="stroke:#ffffff;stroke-width:19.28690147"
             id="g4870">
            <ellipse
               id="ellipse4872"
               ry="84"
               rx="91"
               cy="41"
               cx="0" />
            <rect
               id="rect4874"
               x="-91"
               y="20"
               width="182"
               height="182"
               rx="22" />
          </g>
          <g
             transform="scale(-1,1)"
             id="g4876"
             style="stroke:#ffffff;stroke-width:9.64345074">
            <rect
               id="rect4878"
               x="14"
               y="-86"
               width="13"
               height="86"
               transform="matrix(0.87461971,0.48480962,-0.48480962,0.87461971,0,0)"
               rx="6.5"
               style="stroke-width:9.64345074" />
            <rect
               x="-143"
               y="41"
               width="48"
               height="133"
               rx="24"
               id="rect4880"
               style="stroke-width:9.64345074" />
            <rect
               x="-58"
               y="138"
               width="48"
               height="133"
               rx="24"
               id="rect4882"
               style="stroke-width:9.64345074" />
          </g>
          <g
             id="g4884"
             style="stroke:#ffffff;stroke-width:9.64345074">
            <rect
               id="rect4886"
               x="14"
               y="-86"
               width="13"
               height="86"
               transform="matrix(0.87461971,0.48480962,-0.48480962,0.87461971,0,0)"
               rx="6.5"
               style="stroke-width:9.64345074" />
            <rect
               x="-143"
               y="41"
               width="48"
               height="133"
               rx="24"
               id="rect4888"
               style="stroke-width:9.64345074" />
            <rect
               x="-58"
               y="138"
               width="48"
               height="133"
               rx="24"
               id="rect4890"
               style="stroke-width:9.64345074" />
          </g>
          <g
             id="g4892">
            <ellipse
               id="ellipse4894"
               ry="84"
               rx="91"
               cy="41"
               cx="0" />
            <rect
               id="rect4896"
               x="-91"
               y="20"
               width="182"
               height="182"
               rx="22" />
          </g>
        </g>
        <g
           id="g4898"
           style="fill:#ffffff;stroke:#ffffff;stroke-width:9.64345074">
          <path
             id="path4900"
             d="m -95,44.5 190,0"
             style="stroke-width:9.64345074" />
          <circle
             id="circle4902"
             r="4"
             cx="-42"
             cy="0"
             style="stroke-width:9.64345074" />
          <circle
             id="circle4904"
             r="4"
             cx="42"
             cy="0"
             style="stroke-width:9.64345074" />
        </g>
      </g>
    </g>
    <g
       id="g4906"
       transform="translate(7467.7895,-1370.7143)">
      <rect
         style="color:#000000;clip-rule:nonzero;display:inline;overflow:visible;visibility:visible;opacity:1;isolation:auto;mix-blend-mode:normal;color-interpolation:sRGB;color-interpolation-filters:linearRGB;solid-color:#000000;solid-opacity:1;fill:#5ea6de;fill-opacity:1;fill-rule:nonzero;stroke:none;stroke-width:5;stroke-linecap:butt;stroke-linejoin:round;stroke-miterlimit:4;stroke-dasharray:none;stroke-dashoffset:0;stroke-opacity:1;color-rendering:auto;image-rendering:auto;shape-rendering:auto;text-rendering:auto;enable-background:accumulate"
         id="rect4908"
         width="580.76807"
         height="360"
         x="-6792.8569"
         y="1969.5051"
         ry="21.111694" />
      <path
         transform="matrix(2.4788879,0,0,1,9638.6283,454.28571)"
         style="color:#000000;clip-rule:nonzero;display:inline;overflow:visible;visibility:visible;opacity:1;isolation:auto;mix-blend-mode:normal;color-interpolation:sRGB;color-interpolation-filters:linearRGB;solid-color:#000000;solid-opacity:1;fill:#ffffff;fill-opacity:1;fill-rule:nonzero;stroke:none;stroke-width:5;stroke-linecap:butt;stroke-linejoin:round;stroke-miterlimit:4;stroke-dasharray:none;stroke-dashoffset:0;stroke-opacity:1;color-rendering:auto;image-rendering:auto;shape-rendering:auto;text-rendering:auto;enable-background:accumulate"
         id="path4910"
         d="m -6416.6719,1529.5039 c -0.583,-0.018 -1.1408,0.021 -1.6621,0.1094 a 12.574924,12.574924 0 0 1 -2.1094,0.1797 c -62.6163,0.018 -125.2203,-0.036 -187.8105,0.027 -3.568,0.066 -6.6649,5.2135 -5.9316,9.3848 a 12.574924,12.574924 0 0 1 0.1894,2.1699 c 0.065,104.6584 -0.128,209.2974 0.098,313.8965 0.2986,3.3472 5.2529,6.2514 9.3906,5.5508 a 12.574924,12.574924 0 0 1 2.0703,-0.1778 c 63.0091,-0.1469 125.9449,0.2833 188.7344,-0.2168 1.6328,-0.2545 2.5677,-0.9184 3.664,-2.7617 1.1601,-1.9504 1.7623,-5.1073 1.3555,-7.5137 a 12.574924,12.574924 0 0 1 -0.1758,-2.0878 c -0.066,-104.336 0.1306,-208.6526 -0.1,-312.9278 -0.2725,-2.9424 -3.6815,-5.5093 -7.7129,-5.6328 z" />
      <g
         transform="matrix(0.5118292,0.00208873,-0.00209134,0.51246642,-6502.2402,2097.013)"
         id="g4912">
        <g
           style="fill:#a4c639"
           id="g4914">
          <g
             id="g4916"
             style="stroke:#ffffff;stroke-width:19.28690147">
            <ellipse
               cx="0"
               cy="41"
               rx="91"
               ry="84"
               id="ellipse4918" />
            <rect
               rx="22"
               height="182"
               width="182"
               y="20"
               x="-91"
               id="rect4920" />
          </g>
          <g
             style="stroke:#ffffff;stroke-width:9.64345074"
             id="g4922"
             transform="scale(-1,1)">
            <rect
               style="stroke-width:9.64345074"
               rx="6.5"
               transform="matrix(0.87461971,0.48480962,-0.48480962,0.87461971,0,0)"
               height="86"
               width="13"
               y="-86"
               x="14"
               id="rect4924" />
            <rect
               style="stroke-width:9.64345074"
               id="rect4926"
               rx="24"
               height="133"
               width="48"
               y="41"
               x="-143" />
            <rect
               style="stroke-width:9.64345074"
               id="rect4928"
               rx="24"
               height="133"
               width="48"
               y="138"
               x="-58" />
          </g>
          <g
             style="stroke:#ffffff;stroke-width:9.64345074"
             id="g4930">
            <rect
               style="stroke-width:9.64345074"
               rx="6.5"
               transform="matrix(0.87461971,0.48480962,-0.48480962,0.87461971,0,0)"
               height="86"
               width="13"
               y="-86"
               x="14"
               id="rect4932" />
            <rect
               style="stroke-width:9.64345074"
               id="rect4935"
               rx="24"
               height="133"
               width="48"
               y="41"
               x="-143" />
            <rect
               style="stroke-width:9.64345074"
               id="rect4937"
               rx="24"
               height="133"
               width="48"
               y="138"
               x="-58" />
          </g>
          <g
             id="g4939">
            <ellipse
               cx="0"
               cy="41"
               rx="91"
               ry="84"
               id="ellipse4941" />
            <rect
               rx="22"
               height="182"
               width="182"
               y="20"
               x="-91"
               id="rect4943" />
          </g>
        </g>
        <g
           style="fill:#ffffff;stroke:#ffffff;stroke-width:9.64345074"
           id="g4945">
          <path
             style="stroke-width:9.64345074"
             d="m -95,44.5 190,0"
             id="path4947" />
          <circle
             style="stroke-width:9.64345074"
             cy="0"
             cx="-42"
             r="4"
             id="circle4949" />
          <circle
             style="stroke-width:9.64345074"
             cy="0"
             cx="42"
             r="4"
             id="circle4951" />
        </g>
      </g>
    </g>
    <path
       style="color:#000000;clip-rule:nonzero;display:inline;overflow:visible;visibility:visible;opacity:1;isolation:auto;mix-blend-mode:normal;color-interpolation:sRGB;color-interpolation-filters:linearRGB;solid-color:#000000;solid-opacity:1;fill:#ffffff;fill-opacity:1;fill-rule:nonzero;stroke:#75dbba;stroke-width:5;stroke-linecap:butt;stroke-linejoin:round;stroke-miterlimit:4;stroke-dasharray:none;stroke-dashoffset:0;stroke-opacity:1;color-rendering:auto;image-rendering:auto;shape-rendering:auto;text-rendering:auto;enable-background:accumulate"
       d="m -393.19973,275.48116 a 190,174.28572 0 0 0 -183.9531,131.5469 252.85715,195 0 0 0 -184.6192,187.7383 252.85715,195 0 0 0 252.8575,194.99999 252.85715,195 0 0 0 190.1074,-66.65429 210.71428,173.57143 0 0 0 43.4648,3.7968 210.71428,173.57143 0 0 0 210.712899,-173.5703 210.71428,173.57143 0 0 0 -151.378899,-166.4375 190,174.28572 0 0 0 -177.1914,-111.4199 z"
       id="path4953" />
    <path
       id="rect4955"
       d="m 733.16687,111.57894 c -3.629,0 -6.5508,2.92178 -6.5508,6.55078 l 0,4.32813 -520.3965,0 c -8.4024,0 -15.166,6.76362 -15.166,15.16601 l 0,12.31836 0,254.9043 -136.392601,0 c -8.6327,0 -15.584,6.95125 -15.584,15.58398 l 0,12.65625 c 0,8.63273 6.9513,15.58203 15.584,15.58203 l 164.179701,0 0.1602,0 c 8.5436,0 15.4218,-6.87826 15.4218,-15.42187 l 0,-0.16016 0,-12.65625 0,-255.32031 492.1934,0 0,4.32813 c 0,3.629 2.9218,6.55078 6.5508,6.55078 l 67.7148,0 c 3.6291,0 13.8432,-5.95958 31.4649,-32.20508 -17.6217,-25.6378 -27.8358,-32.20508 -31.4649,-32.20508 l -67.7148,0 z"
       style="color:#000000;clip-rule:nonzero;display:inline;overflow:visible;visibility:visible;opacity:1;isolation:auto;mix-blend-mode:normal;color-interpolation:sRGB;color-interpolation-filters:linearRGB;solid-color:#000000;solid-opacity:1;fill:#3acc9d;fill-opacity:1;fill-rule:nonzero;stroke:none;stroke-width:2.5;stroke-linecap:butt;stroke-linejoin:round;stroke-miterlimit:4;stroke-dasharray:none;stroke-dashoffset:0;stroke-opacity:1;color-rendering:auto;image-rendering:auto;shape-rendering:auto;text-rendering:auto;enable-background:accumulate" />
    <path
       id="rect4961"
       d="m 274.97737,195.46175 c -8.4238,0 -15.2051,6.78126 -15.2051,15.20508 l 0,0.19531 0,12.1543 0,259.91406 -193.121101,0 0,-3.77734 c 0,-3.629 -2.9217,-6.54883 -6.5507,-6.54883 l -67.7167997,0 c -3.6291003,0 -13.8412003,6.56728 -31.4629003,32.20508 17.6217,26.2455 27.8338,32.20508 31.4629003,32.20508 l 67.7167997,0 c 3.629,0 6.5507,-2.92178 6.5507,-6.55078 l 0,-3.95704 220.939501,0 0.094,0 c 8.5325,0 15.4003,-6.86779 15.4003,-15.40039 l 0,-0.0937 0,-12.58789 0,-260.20117 499.42,0 c 8.4238,0 15.207,-6.78321 15.207,-15.20703 l 0,-12.34961 c 0,-8.42382 -6.7832,-15.20508 -15.207,-15.20508 l -514.8203,0 -12.5118,0 -0.1953,0 z"
       style="color:#000000;clip-rule:nonzero;display:inline;overflow:visible;visibility:visible;opacity:1;isolation:auto;mix-blend-mode:normal;color-interpolation:sRGB;color-interpolation-filters:linearRGB;solid-color:#000000;solid-opacity:1;fill:#3acc9d;fill-opacity:1;fill-rule:nonzero;stroke:none;stroke-width:2.5;stroke-linecap:butt;stroke-linejoin:round;stroke-miterlimit:4;stroke-dasharray:none;stroke-dashoffset:0;stroke-opacity:1;color-rendering:auto;image-rendering:auto;shape-rendering:auto;text-rendering:auto;enable-background:accumulate" />
    <path
       id="rect4967"
       d="m 56.754769,646.62386 c -8.6328,0 -15.584,6.9493 -15.584,15.58203 l 0,12.65625 c 0,8.63273 6.9512,15.58203 15.584,15.58203 l 136.246101,0 0,208.21488 c -1e-4,0.013 0,0.026 0,0.039 l 0,12.4688 c 0,8.5034 6.8462,15.3476 15.3496,15.3476 l 345.5313,0 0,4.0723 c 0,3.629 2.9217,6.5508 6.5507,6.5508 l 67.7149,0 c 3.6291,0 13.8431,-5.9596 31.4648,-32.2051 -17.6217,-25.6378 -27.8357,-32.2051 -31.4648,-32.2051 l -67.7149,0 c -3.629,0 -6.5507,2.9218 -6.5507,6.5508 l 0,4.0723 -317.3633,0 0,-208.48831 0,-12.65625 0,-0.10937 c 0,-8.57256 -6.9021,-15.47266 -15.4746,-15.47266 l -0.1074,0 -12.461,0 -151.718701,0 z"
       style="color:#000000;clip-rule:nonzero;display:inline;overflow:visible;visibility:visible;opacity:1;isolation:auto;mix-blend-mode:normal;color-interpolation:sRGB;color-interpolation-filters:linearRGB;solid-color:#000000;solid-opacity:1;fill:#3acc9d;fill-opacity:1;fill-rule:nonzero;stroke:none;stroke-width:2.5;stroke-linecap:butt;stroke-linejoin:round;stroke-miterlimit:4;stroke-dasharray:none;stroke-dashoffset:0;stroke-opacity:1;color-rendering:auto;image-rendering:auto;shape-rendering:auto;text-rendering:auto;enable-background:accumulate" />
    <path
       id="rect4971"
       d="m -7.6163307,563.48519 c -3.6291003,0 -13.8412003,6.56728 -31.4629003,32.20508 17.6217,26.2455 27.8338,32.20508 31.4629003,32.20508 l 67.7167997,0 c 3.629,0 6.5507,-2.91983 6.5507,-6.54883 l 0,-3.86719 193.029301,0 0,226.88872 0,0.066 c 0,8.5317 6.8687,15.4003 15.4004,15.4003 l 315.5547,0 c 8.5317,0 15.3985,-6.8686 15.3985,-15.4003 l 0,-12.5079 c 0,-8.5317 -6.8668,-15.4003 -15.3985,-15.4003 l -287.459,0 0,-214.54301 0,-12.58594 0,-0.0273 c 0,-8.56865 -6.8981,-15.46875 -15.4668,-15.46875 l -0.029,0 -221.029301,0 0,-3.86524 c 0,-3.629 -2.9217,-6.55078 -6.5507,-6.55078 l -67.7167997,0 z"
       style="color:#000000;clip-rule:nonzero;display:inline;overflow:visible;visibility:visible;opacity:1;isolation:auto;mix-blend-mode:normal;color-interpolation:sRGB;color-interpolation-filters:linearRGB;solid-color:#000000;solid-opacity:1;fill:#3acc9d;fill-opacity:1;fill-rule:nonzero;stroke:none;stroke-width:2.5;stroke-linecap:butt;stroke-linejoin:round;stroke-miterlimit:4;stroke-dasharray:none;stroke-dashoffset:0;stroke-opacity:1;color-rendering:auto;image-rendering:auto;shape-rendering:auto;text-rendering:auto;enable-background:accumulate" />
  </g>
</svg>
